<svg xmlns="http://www.w3.org/2000/svg" xmlns:xlink="http://www.w3.org/1999/xlink" viewBox="0 0 500 500"><defs><clipPath id="freepik--clip-path--inject-2"><ellipse cx="302.9" cy="417.1" rx="50.48" ry="10.91" style="fill:#263238;stroke:#263238;stroke-linecap:round;stroke-linejoin:round"></ellipse></clipPath></defs><g id="freepik--background-simple--inject-2"><path d="M329.22,43.77s-73.45-21.63-146,22.12S73.73,191.21,42,256.67,27.85,386.24,82.82,413.17s92.77-18.6,170.17-24.54,98.14,3.72,162.63-41.6,76.76-145.46,26.59-216.64S329.22,43.77,329.22,43.77Z" style="fill:#92E3A9"></path><path d="M329.22,43.77s-73.45-21.63-146,22.12S73.73,191.21,42,256.67,27.85,386.24,82.82,413.17s92.77-18.6,170.17-24.54,98.14,3.72,162.63-41.6,76.76-145.46,26.59-216.64S329.22,43.77,329.22,43.77Z" style="fill:#fff;opacity:0.7000000000000001"></path></g><g id="freepik--Speakers--inject-2"><path d="M370.27,265.58a49.78,49.78,0,0,1,2.91-70.09" style="fill:none;stroke:#263238;stroke-miterlimit:10"></path><path d="M443.9,265.39a49.78,49.78,0,0,1-65,7.69" style="fill:none;stroke:#263238;stroke-miterlimit:10"></path><path d="M456.11,224a50.05,50.05,0,0,1-2.52,25.57" style="fill:none;stroke:#263238;stroke-miterlimit:10"></path><path d="M380.29,190a49.79,49.79,0,0,1,73.95,26.29" style="fill:none;stroke:#263238;stroke-miterlimit:10"></path><circle cx="407" cy="232" r="43" style="fill:none;stroke:#263238;stroke-miterlimit:10"></circle><path d="M436.54,217.77a32.78,32.78,0,1,0-54.92,35C385.7,246.59,404.65,220.8,436.54,217.77Z" style="fill:#263238;stroke:#263238;stroke-miterlimit:10"></path><path d="M407,196.8A35.2,35.2,0,1,0,442.2,232,35.2,35.2,0,0,0,407,196.8Zm0,66A30.84,30.84,0,1,1,437.84,232,30.84,30.84,0,0,1,407,262.84Z" style="fill:#263238;stroke:#fff;stroke-miterlimit:10"></path><circle cx="407" cy="232" r="23.27" style="fill:none;stroke:#263238;stroke-miterlimit:10"></circle><circle cx="407" cy="232" r="16.76" style="fill:none;stroke:#263238;stroke-miterlimit:10"></circle><circle cx="407" cy="232" r="9" style="fill:#263238;stroke:#fff;stroke-miterlimit:10"></circle><path d="M381.91,156.69a34,34,0,0,1,2-47.88" style="fill:none;stroke:#263238;stroke-miterlimit:10"></path><path d="M432.21,156.56a34,34,0,0,1-44.4,5.26" style="fill:none;stroke:#263238;stroke-miterlimit:10"></path><path d="M440.56,128.25a34.31,34.31,0,0,1,.44,5.5,33.94,33.94,0,0,1-2.17,12" style="fill:none;stroke:#263238;stroke-miterlimit:10"></path><path d="M388.75,105.06a34,34,0,0,1,50.52,18" style="fill:none;stroke:#263238;stroke-miterlimit:10"></path><circle cx="407" cy="133.75" r="29.38" transform="translate(-21.15 148.68) rotate(-20.19)" style="fill:none;stroke:#263238;stroke-miterlimit:10"></circle><path d="M427.18,124a22.4,22.4,0,1,0-37.52,23.89C392.45,143.71,405.4,126.09,427.18,124Z" style="fill:#263238;stroke:#263238;stroke-miterlimit:10"></path><path d="M407,109.7a24,24,0,1,0,24.05,24A24,24,0,0,0,407,109.7Zm0,45.12a21.07,21.07,0,1,1,21.07-21.07A21.07,21.07,0,0,1,407,154.82Z" style="fill:#263238;stroke:#fff;stroke-miterlimit:10"></path><circle cx="407" cy="133.75" r="15.9" transform="translate(-21.19 147.46) rotate(-20.03)" style="fill:none;stroke:#263238;stroke-miterlimit:10"></circle><circle cx="407" cy="133.75" r="11.45" style="fill:none;stroke:#263238;stroke-miterlimit:10"></circle><path d="M413.15,133.75A6.15,6.15,0,1,1,407,127.6,6.15,6.15,0,0,1,413.15,133.75Z" style="fill:#263238;stroke:#fff;stroke-miterlimit:10"></path><path d="M81.91,156.69a34,34,0,0,1,2-47.88" style="fill:none;stroke:#263238;stroke-miterlimit:10"></path><path d="M132.21,156.56a34,34,0,0,1-44.4,5.26" style="fill:none;stroke:#263238;stroke-miterlimit:10"></path><path d="M140.56,128.25a34.31,34.31,0,0,1,.44,5.5,33.94,33.94,0,0,1-2.17,12" style="fill:none;stroke:#263238;stroke-miterlimit:10"></path><path d="M88.75,105.06a34,34,0,0,1,50.52,18" style="fill:none;stroke:#263238;stroke-miterlimit:10"></path><circle cx="107" cy="133.75" r="29.38" transform="translate(-43.76 52.45) rotate(-23)" style="fill:none;stroke:#263238;stroke-miterlimit:10"></circle><path d="M127.18,124a22.4,22.4,0,1,0-37.52,23.89C92.45,143.71,105.4,126.09,127.18,124Z" style="fill:#263238;stroke:#263238;stroke-miterlimit:10"></path><path d="M107,109.7a24,24,0,1,0,24.05,24A24,24,0,0,0,107,109.7Zm0,45.12a21.07,21.07,0,1,1,21.07-21.07A21.07,21.07,0,0,1,107,154.82Z" style="fill:#263238;stroke:#fff;stroke-miterlimit:10"></path><circle cx="107" cy="133.75" r="15.9" transform="translate(-43.69 52.31) rotate(-22.95)" style="fill:none;stroke:#263238;stroke-miterlimit:10"></circle><circle cx="107" cy="133.75" r="11.45" style="fill:none;stroke:#263238;stroke-miterlimit:10"></circle><path d="M113.15,133.75A6.15,6.15,0,1,1,107,127.6,6.15,6.15,0,0,1,113.15,133.75Z" style="fill:#263238;stroke:#fff;stroke-miterlimit:10"></path><path d="M381.91,352.39a34,34,0,0,1,2-47.89" style="fill:none;stroke:#263238;stroke-miterlimit:10"></path><path d="M432.21,352.26a34,34,0,0,1-44.4,5.25" style="fill:none;stroke:#263238;stroke-miterlimit:10"></path><path d="M440.56,323.94a34.4,34.4,0,0,1,.44,5.5,33.94,33.94,0,0,1-2.17,12" style="fill:none;stroke:#263238;stroke-miterlimit:10"></path><path d="M388.75,300.75a34,34,0,0,1,50.52,18" style="fill:none;stroke:#263238;stroke-miterlimit:10"></path><circle cx="407" cy="329.44" r="29.38" transform="matrix(0.15, -0.99, 0.99, 0.15, 19.55, 681.67)" style="fill:none;stroke:#263238;stroke-miterlimit:10"></circle><path d="M427.18,319.72a22.4,22.4,0,1,0-37.52,23.89C392.45,339.41,405.4,321.79,427.18,319.72Z" style="fill:#263238;stroke:#263238;stroke-miterlimit:10"></path><path d="M407,305.39a24.06,24.06,0,1,0,24.05,24.05A24.05,24.05,0,0,0,407,305.39Zm0,45.12a21.07,21.07,0,1,1,21.07-21.07A21.07,21.07,0,0,1,407,350.51Z" style="fill:#263238;stroke:#fff;stroke-miterlimit:10"></path><circle cx="407" cy="329.44" r="15.9" transform="translate(19.76 681.9) rotate(-81.3)" style="fill:none;stroke:#263238;stroke-miterlimit:10"></circle><circle cx="407" cy="329.44" r="11.45" style="fill:none;stroke:#263238;stroke-miterlimit:10"></circle><path d="M413.15,329.44a6.15,6.15,0,1,1-6.15-6.15A6.15,6.15,0,0,1,413.15,329.44Z" style="fill:#263238;stroke:#fff;stroke-miterlimit:10"></path><path d="M81.91,352.39a34,34,0,0,1,2-47.89" style="fill:none;stroke:#263238;stroke-miterlimit:10"></path><path d="M132.21,352.26a34,34,0,0,1-44.4,5.25" style="fill:none;stroke:#263238;stroke-miterlimit:10"></path><path d="M140.56,323.94a34.4,34.4,0,0,1,.44,5.5,33.94,33.94,0,0,1-2.17,12" style="fill:none;stroke:#263238;stroke-miterlimit:10"></path><path d="M88.75,300.75a34,34,0,0,1,50.52,18" style="fill:none;stroke:#263238;stroke-miterlimit:10"></path><circle cx="107" cy="329.44" r="29.38" transform="translate(-235.42 381.69) rotate(-80.68)" style="fill:none;stroke:#263238;stroke-miterlimit:10"></circle><path d="M127.18,319.72a22.4,22.4,0,1,0-37.52,23.89C92.45,339.41,105.4,321.79,127.18,319.72Z" style="fill:#263238;stroke:#263238;stroke-miterlimit:10"></path><path d="M107,305.39a24.06,24.06,0,1,0,24.05,24.05A24.05,24.05,0,0,0,107,305.39Zm0,45.12a21.07,21.07,0,1,1,21.07-21.07A21.07,21.07,0,0,1,107,350.51Z" style="fill:#263238;stroke:#fff;stroke-miterlimit:10"></path><circle cx="107" cy="329.44" r="15.9" transform="translate(-235.41 381.75) rotate(-80.69)" style="fill:none;stroke:#263238;stroke-miterlimit:10"></circle><circle cx="107" cy="329.44" r="11.45" style="fill:none;stroke:#263238;stroke-miterlimit:10"></circle><path d="M113.15,329.44a6.15,6.15,0,1,1-6.15-6.15A6.15,6.15,0,0,1,113.15,329.44Z" style="fill:#263238;stroke:#fff;stroke-miterlimit:10"></path><path d="M70.27,265.58a49.78,49.78,0,0,1,2.91-70.09" style="fill:none;stroke:#263238;stroke-miterlimit:10"></path><path d="M143.9,265.39a49.78,49.78,0,0,1-65,7.69" style="fill:none;stroke:#263238;stroke-miterlimit:10"></path><path d="M156.11,224a50.05,50.05,0,0,1-2.52,25.57" style="fill:none;stroke:#263238;stroke-miterlimit:10"></path><path d="M80.29,190a49.79,49.79,0,0,1,74,26.29" style="fill:none;stroke:#263238;stroke-miterlimit:10"></path><circle cx="107" cy="232" r="43" style="fill:none;stroke:#263238;stroke-miterlimit:10"></circle><path d="M136.54,217.77a32.78,32.78,0,1,0-54.92,35C85.7,246.59,104.65,220.8,136.54,217.77Z" style="fill:#263238;stroke:#263238;stroke-miterlimit:10"></path><path d="M107,196.8A35.2,35.2,0,1,0,142.2,232,35.2,35.2,0,0,0,107,196.8Zm0,66A30.84,30.84,0,1,1,137.84,232,30.84,30.84,0,0,1,107,262.84Z" style="fill:#263238;stroke:#fff;stroke-miterlimit:10"></path><circle cx="107" cy="232" r="23.27" style="fill:none;stroke:#263238;stroke-miterlimit:10"></circle><circle cx="107" cy="232" r="16.76" style="fill:none;stroke:#263238;stroke-miterlimit:10"></circle><circle cx="107" cy="232" r="9" style="fill:#263238;stroke:#fff;stroke-miterlimit:10"></circle></g><g id="freepik--Device--inject-2"><polygon points="425.78 440.89 74.76 440.89 122.17 405.5 378.37 405.5 425.78 440.89" style="fill:#707070;stroke:#263238;stroke-linecap:round;stroke-linejoin:round"></polygon><rect x="74.76" y="440.89" width="351.15" height="9.32" style="fill:#263238;stroke:#263238;stroke-linecap:round;stroke-linejoin:round"></rect><polygon points="425.78 440.89 74.76 440.89 122.17 405.5 378.37 405.5 425.78 440.89" style="fill:#707070;stroke:#263238;stroke-linecap:round;stroke-linejoin:round"></polygon><polygon points="113.56 433.36 107.73 433.36 134.17 410.46 138.92 410.46 113.56 433.36" style="fill:#263238;stroke:#263238;stroke-linecap:round;stroke-linejoin:round"></polygon><polygon points="128.05 420.28 122.84 420.28 125.72 417.78 130.81 417.78 128.05 420.28" style="fill:#92E3A9;stroke:#263238;stroke-linecap:round;stroke-linejoin:round"></polygon><polygon points="124.62 433.36 118.8 433.36 143.19 410.46 147.93 410.46 124.62 433.36" style="fill:#263238;stroke:#263238;stroke-linecap:round;stroke-linejoin:round"></polygon><polygon points="129.98 428.1 124.4 428.1 127.44 425.24 132.88 425.24 129.98 428.1" style="fill:#92E3A9;stroke:#263238;stroke-linecap:round;stroke-linejoin:round"></polygon><polygon points="135.69 433.36 129.86 433.36 152.2 410.46 156.94 410.46 135.69 433.36" style="fill:#263238;stroke:#263238;stroke-linecap:round;stroke-linejoin:round"></polygon><polygon points="143.05 425.43 137.6 425.43 140.26 422.7 145.59 422.7 143.05 425.43" style="fill:#92E3A9;stroke:#263238;stroke-linecap:round;stroke-linejoin:round"></polygon><polygon points="146.75 433.36 140.93 433.36 161.21 410.46 165.96 410.46 146.75 433.36" style="fill:#263238;stroke:#263238;stroke-linecap:round;stroke-linejoin:round"></polygon><polygon points="157.72 420.28 152.51 420.28 154.73 417.78 159.82 417.78 157.72 420.28" style="fill:#92E3A9;stroke:#263238;stroke-linecap:round;stroke-linejoin:round"></polygon><polygon points="157.82 433.36 151.99 433.36 170.22 410.46 174.97 410.46 157.82 433.36" style="fill:#263238;stroke:#263238;stroke-linecap:round;stroke-linejoin:round"></polygon><polygon points="167.62 420.28 162.41 420.28 164.4 417.78 169.49 417.78 167.62 420.28" style="fill:#fff;stroke:#263238;stroke-linecap:round;stroke-linejoin:round"></polygon><polygon points="185.32 433.36 179.5 433.36 192.63 410.46 197.37 410.46 185.32 433.36" style="fill:#263238;stroke:#263238;stroke-linecap:round;stroke-linejoin:round"></polygon><polygon points="187.76 428.72 182.16 428.72 183.81 425.83 189.28 425.83 187.76 428.72" style="fill:#92E3A9;stroke:#263238;stroke-linecap:round;stroke-linejoin:round"></polygon><polygon points="196.39 433.36 190.56 433.36 201.64 410.46 206.38 410.46 196.39 433.36" style="fill:#263238;stroke:#263238;stroke-linecap:round;stroke-linejoin:round"></polygon><polygon points="203.64 416.75 198.6 416.75 199.73 414.41 204.66 414.41 203.64 416.75" style="fill:#92E3A9;stroke:#263238;stroke-linecap:round;stroke-linejoin:round"></polygon><polygon points="207.45 433.36 201.63 433.36 210.65 410.46 215.4 410.46 207.45 433.36" style="fill:#263238;stroke:#263238;stroke-linecap:round;stroke-linejoin:round"></polygon><polygon points="211.45 421.84 206.17 421.84 207.18 419.27 212.34 419.27 211.45 421.84" style="fill:#92E3A9;stroke:#263238;stroke-linecap:round;stroke-linejoin:round"></polygon><polygon points="218.52 433.36 212.69 433.36 219.66 410.46 224.41 410.46 218.52 433.36" style="fill:#263238;stroke:#263238;stroke-linecap:round;stroke-linejoin:round"></polygon><polygon points="220.39 426.07 214.91 426.07 215.75 423.31 221.1 423.31 220.39 426.07" style="fill:#92E3A9;stroke:#263238;stroke-linecap:round;stroke-linejoin:round"></polygon><polygon points="229.59 433.36 223.76 433.36 228.68 410.46 233.42 410.46 229.59 433.36" style="fill:#263238;stroke:#263238;stroke-linecap:round;stroke-linejoin:round"></polygon><polygon points="230.15 429.98 224.48 429.98 225.12 427.03 230.65 427.03 230.15 429.98" style="fill:#92E3A9;stroke:#263238;stroke-linecap:round;stroke-linejoin:round"></polygon><path d="M241.42,430.64c-.08,1-1.52,1.84-3.24,1.84s-3-.83-2.87-1.84,1.57-1.79,3.23-1.79S241.49,429.64,241.42,430.64Z" style="fill:#92E3A9;stroke:#263238;stroke-linecap:round;stroke-linejoin:round"></path><path d="M405.64,430.64c1.3,1,1,1.84-.73,1.84a10,10,0,0,1-5.38-1.84c-1.23-1-.86-1.79.8-1.79A10,10,0,0,1,405.64,430.64Z" style="fill:#92E3A9;stroke:#263238;stroke-linecap:round;stroke-linejoin:round"></path><path d="M174,430.64a5.52,5.52,0,0,1-4.26,1.84c-1.72,0-2.53-.83-1.84-1.84a5.59,5.59,0,0,1,4.23-1.79C173.75,428.85,174.59,429.64,174,430.64Z" style="fill:#92E3A9;stroke:#263238;stroke-linecap:round;stroke-linejoin:round"></path><path d="M178.19,423.94c-.57.91-2.35,1.65-4,1.65s-2.42-.74-1.8-1.65a5.22,5.22,0,0,1,3.93-1.6C177.93,422.34,178.75,423.05,178.19,423.94Z" style="fill:#92E3A9;stroke:#263238;stroke-linecap:round;stroke-linejoin:round"></path><path d="M181.42,418.83c-.52.83-2.2,1.5-3.74,1.5s-2.33-.67-1.77-1.5a5,5,0,0,1,3.72-1.46C181.13,417.37,181.93,418,181.42,418.83Z" style="fill:#92E3A9;stroke:#263238;stroke-linecap:round;stroke-linejoin:round"></path><path d="M241.89,424.27c-.07.91-1.44,1.65-3.06,1.65s-2.84-.74-2.73-1.65,1.48-1.61,3.05-1.61S242,423.37,241.89,424.27Z" style="fill:#92E3A9;stroke:#263238;stroke-linecap:round;stroke-linejoin:round"></path><path d="M382.26,415.94a1,1,0,0,0-.49-.41L369.08,411v-4H365.7v2.79l-1.62-.58V407h-3.37v1l-9.84-3.52v-1.3h-9.11V408h9.11v-1.32l9.84,3.53v4.84h3.37v-3.63l1.62.58v3.05h3.38v-1.84l7.58,2.72h-2.44v4.84h9.1v-4.84Z" style="fill:#263238;stroke:#263238;stroke-linecap:round;stroke-linejoin:round"></path><path d="M353.38,417.1H337.51a142.18,142.18,0,0,0-34.61-4.51,149.69,149.69,0,0,0-35.78,4.51h-14.7l-3.5,6.4c0,6,24.17,10.91,54,10.91s54-4.88,54-10.91Z" style="fill:#fff;stroke:#263238;stroke-linecap:round;stroke-linejoin:round"></path><ellipse cx="302.9" cy="417.1" rx="50.48" ry="10.91" style="fill:#263238"></ellipse><g style="clip-path:url(#freepik--clip-path--inject-2)"><path d="M279.36,426.75l25.89-10.22,46.81-1.91c-3.35-3.11-12.88-5.72-25.66-7.17l-22.46,6.79L252.59,418C254,421.79,264.46,425.05,279.36,426.75Z" style="fill:#ababab"></path></g><ellipse cx="302.9" cy="417.1" rx="50.48" ry="10.91" style="fill:none;stroke:#263238;stroke-linecap:round;stroke-linejoin:round"></ellipse><ellipse cx="302.9" cy="415.36" rx="19.52" ry="4.22" style="fill:#fff;stroke:#263238;stroke-linecap:round;stroke-linejoin:round"></ellipse><path d="M307.61,414.3c0,.57-2.11,1-4.71,1s-4.71-.45-4.71-1,2.11-1,4.71-1S307.61,413.74,307.61,414.3Z" style="fill:#263238;stroke:#263238;stroke-linecap:round;stroke-linejoin:round"></path></g><g id="freepik--Character--inject-2"><path d="M200.48,312.29l5.38-22.22s4.95,46,5.53,53.54c.48,6.22-4.15,47.42-5.82,61.89H316.72l-11.06-63.35,1.75-61.1,6.69,30s14.26.58,26.48-4.36,14.84-9,14.84-9-27.35-63.43-32-72.16-4.94-10.77-4.94-10.77-36.08-15.13-57-25.6l-14.84,2s-58.78,25-59.94,27.06-16.15,67.32-24.29,81.28c0,0,17.16,9.9,27.64,11.35Z" style="fill:#92E3A9;stroke:#263238;stroke-linecap:round;stroke-linejoin:round"></path><circle cx="255" cy="277.46" r="40.46" transform="translate(-60.66 483.3) rotate(-80.52)" style="fill:#5e5e5e"></circle><path d="M254.33,276,239.2,314.72a40.54,40.54,0,0,0,32.73-.51L255.18,277l14.54-37.23a40.43,40.43,0,0,0-31.32.8Z" style="fill:#ababab"></path><circle cx="255" cy="277.46" r="19.99" transform="translate(-60.88 482.95) rotate(-80.46)" style="fill:#fff"></circle><path d="M258.9,277.46a3.9,3.9,0,1,1-3.9-3.9A3.9,3.9,0,0,1,258.9,277.46Z" style="fill:#5e5e5e"></path><path d="M246.6,191.14s-7.51,3.2-17.21,7.4v.19c0,16.35,9.88,29.6,22.06,29.6s22.07-13.25,22.07-29.6c0-1.32-.07-2.63-.19-3.91-4.24-2-8.29-3.91-11.89-5.71Z" style="fill:none;stroke:#263238;stroke-linecap:round;stroke-linejoin:round"></path><line x1="205.86" y1="290.07" x2="196.77" y2="251.21" style="fill:none;stroke:#263238;stroke-linecap:round;stroke-linejoin:round"></line><line x1="199.46" y1="263.6" x2="187.6" y2="248.51" style="fill:none;stroke:#263238;stroke-linecap:round;stroke-linejoin:round"></line><path d="M307.41,281.05s-3.92-23.91-2.84-38.47" style="fill:none;stroke:#263238;stroke-linecap:round;stroke-linejoin:round"></path><path d="M306.72,277.08s-1.08-22.64,2.7-34" style="fill:none;stroke:#263238;stroke-linecap:round;stroke-linejoin:round"></path><path d="M232.63,174.27s1.46,23.28,2,30,6.69,18,17.75,17.46,14.84-13.1,15.42-17.75,0-28.23,0-28.23-9.6,8.15-20.37,6.11A36.21,36.21,0,0,1,232.63,174.27Z" style="fill:#b2b2b2;stroke:#263238;stroke-linecap:round;stroke-linejoin:round"></path><path d="M267.84,175.72s-9.6,8.15-20.37,6.11a36.21,36.21,0,0,1-14.84-7.56s.38,6,.82,12.83c4.6,5.41,10.49,10.36,13.15,11.42,4.36,1.75,11.34,1.16,14.84-2a89.38,89.38,0,0,0,6.63-6.51C268,182.81,267.84,175.72,267.84,175.72Z" style="fill:#263238;stroke:#263238;stroke-linecap:round;stroke-linejoin:round"></path><path d="M230,105.6s-6.69,4.66-6.69,12.8,2.33,43.65,4.07,51.21,14.84,19.79,19.21,21.53,11.34,1.17,14.84-2,16-14,16.58-26.77,1.75-30,0-40.74-8.15-18-16.58-20.95S235.83,99.78,230,105.6Z" style="fill:#b2b2b2;stroke:#263238;stroke-linecap:round;stroke-linejoin:round"></path><path d="M261.44,100.65c-8.44-2.91-25.61-.87-31.43,4.95,0,0-6.69,4.66-6.69,12.8,0,2.54.23,7.74.59,13.92l.57.34s1.17-9.89,9.61-13.38,20.65,1.45,26.76.87,11.06-12.22,11.35-9-6.69,9-6.4,9.89,4.66,5.53,8.44,12.22c1.81,3.2,3.35,5.06,4.69,5.69A107.38,107.38,0,0,0,278,121.6C276.28,110.84,269.87,103.56,261.44,100.65Z" style="fill:#263238;stroke:#263238;stroke-linecap:round;stroke-linejoin:round"></path><path d="M231.76,150.12s3.78,3.49,9.89,0" style="fill:none;stroke:#263238;stroke-linecap:round;stroke-linejoin:round;stroke-width:2px"></path><path d="M258.82,150.12s3.78,3.49,9.89,0" style="fill:none;stroke:#263238;stroke-linecap:round;stroke-linejoin:round;stroke-width:2px"></path><path d="M230.59,140.52s4.08-5.24,12.22-2.33" style="fill:none;stroke:#263238;stroke-linecap:round;stroke-linejoin:round;stroke-width:2px"></path><path d="M257.65,138.77s5-6.11,13.39,0" style="fill:none;stroke:#263238;stroke-linecap:round;stroke-linejoin:round;stroke-width:2px"></path><path d="M242.81,160.3s-.58,2.91,1.46,4.37,6.4,4.36,9,3.2,6.69-2.62,7-4.37l.29-1.74" style="fill:none;stroke:#263238;stroke-linecap:round;stroke-linejoin:round"></path><path d="M241.36,169.32s9.89,8.73,22.69,0" style="fill:none;stroke:#263238;stroke-linecap:round;stroke-linejoin:round"></path><path d="M216.92,138.89a1.57,1.57,0,0,1-1.57-1.47c0-.71-1.14-17.46,4.28-26.79a1.58,1.58,0,0,1,2.73,1.58c-4.94,8.5-3.88,24.83-3.87,25a1.57,1.57,0,0,1-1.46,1.68Z" style="fill:#858585;stroke:#263238;stroke-linecap:round;stroke-linejoin:round"></path><path d="M283.73,138.89h-.11a1.57,1.57,0,0,1-1.46-1.68c0-.16,1.06-16.5-3.87-25a1.58,1.58,0,0,1,2.73-1.58c5.42,9.33,4.33,26.08,4.28,26.79A1.57,1.57,0,0,1,283.73,138.89Z" style="fill:#858585;stroke:#263238;stroke-linecap:round;stroke-linejoin:round"></path><path d="M286.19,117.75a29.71,29.71,0,0,0-6.75-13c-4.31-4.92-12.06-10.58-25.38-11.67a3.79,3.79,0,0,0-1-.17c-.81,0-1.6,0-2.38,0h-.82c-.77,0-1.55,0-2.35,0a3.79,3.79,0,0,0-1,.17c-27.75,2.26-32.08,24.44-32.13,24.68a3.68,3.68,0,1,0,7.24,1.3c0-.19,3.63-18.34,28.65-18.8,24.77.45,28.44,18,28.6,18.82a3.68,3.68,0,0,0,7.24-1.32Z" style="fill:#858585;stroke:#263238;stroke-linecap:round;stroke-linejoin:round"></path><path d="M220.32,158.53s1.4,49.74,7,98.09c5.33,45.95,3.38,111.52-.13,148.28" style="fill:none;stroke:#263238;stroke-linecap:round;stroke-linejoin:round"></path><path d="M281.27,158.18s-7.7,79.52-17.86,107.9-23.47,36.78-33.63,20" style="fill:none;stroke:#263238;stroke-linecap:round;stroke-linejoin:round"></path><path d="M219.54,135.3l-.29,0c-5.63,0-10.19,5.93-10.19,13.24s4.56,13.24,10.19,13.24l.29,0Z" style="fill:#fff;stroke:#263238;stroke-linecap:round;stroke-linejoin:round"></path><rect x="216.92" y="133.82" width="8.15" height="29.39" rx="3.32" style="fill:#858585;stroke:#263238;stroke-linecap:round;stroke-linejoin:round"></rect><path d="M284.13,135.3l.29,0c5.63,0,10.19,5.93,10.19,13.24s-4.56,13.24-10.19,13.24l-.29,0Z" style="fill:#fff;stroke:#263238;stroke-linecap:round;stroke-linejoin:round"></path><rect x="278.6" y="133.82" width="8.15" height="29.39" rx="3.32" transform="translate(565.35 297.04) rotate(180)" style="fill:#858585;stroke:#263238;stroke-linecap:round;stroke-linejoin:round"></rect><path d="M195.07,311.53l-5.06-.7c-5.83-.81-13.73-4.23-19.59-7.11a104.18,104.18,0,0,0-7.76,30.1c-1.34,11.57-14,48.88-16.3,55.28s3.2,9.6,3.5,15.42,9.89,10.19,10.76,11.64,4.37,1.75,3.78-1.16-2.61-5.53-2.32-8.15,2-12.8,2-12.8,3.49,1.74,4.66,3.49-1.17,7-2.33,11.35,1.46,8.44,2.62,7.85,3.49-10.18,6.11-15.42,2-7.27-.29-10.18-10.48-16.59-10.48-16.59,22.41-38.4,25.9-47.13A142.4,142.4,0,0,0,195.07,311.53Z" style="fill:#b2b2b2;stroke:#263238;stroke-linecap:round;stroke-linejoin:round"></path><path d="M170.42,303.72c-.42.95-.88,2-1.35,3.27a35,35,0,0,0,25.21,7.56c.27-1,.54-2.05.79-3l-5.06-.7C184.18,310,176.28,306.6,170.42,303.72Z" style="fill:#263238;stroke:#263238;stroke-linecap:round;stroke-linejoin:round"></path><path d="M155.38,394.34s.59,11.64,0,14.84,5.24,5.82,6.11,8.44,5.24,4.36,5.53-.88-4.94-9.89-4.94-9.89L165,392.59" style="fill:#b2b2b2;stroke:#263238;stroke-linecap:round;stroke-linejoin:round"></path><line x1="149.27" y1="395.21" x2="149.86" y2="401.9" style="fill:none;stroke:#263238;stroke-linecap:round;stroke-linejoin:round"></line><path d="M340.58,306.66c-4.54,1.84-13.26,3.55-17.53,4.17-4,5.27-12.09,19.71-25.49,38.1-8,11-16.46,17.11-17.34,19.44s-12.63,23.09-15.54,27.74-5.24,7.57-3.2,7.86,2.91.58,6.4-3.78,9-16,9-16-4.66,17.74-5.82,20.36-2.33,4.08-.29,4.95,5.53.29,7.85-4.07,11.64-22.7,11.64-22.7-7.27,22.11-8.43,24.44,3.49,3.49,4.94.87,5.43-16.2,6.31-17.07,3.65-5.67,5-12.35c.52-2.63,1.05-9.72,1.05-9.72s35.91-30.82,45.8-41.29,14-15.72,14-20.66c0-2.83-2.38-6-4.42-8.27C352.93,300.2,349.09,303.21,340.58,306.66Z" style="fill:#b2b2b2;stroke:#263238;stroke-linecap:round;stroke-linejoin:round"></path><path d="M355.31,299.61c-.28-.32-.55-.64-.82-.93-1.56,1.52-5.4,4.53-13.91,8-4.54,1.84-13.26,3.55-17.53,4.17-.76,1-1.68,2.37-2.75,4C328.8,314.84,344.83,312.86,355.31,299.61Z" style="fill:#263238;stroke:#263238;stroke-linecap:round;stroke-linejoin:round"></path><path d="M270.79,409.5s8.44-14,11.64-27.06" style="fill:none;stroke:#263238;stroke-linecap:round;stroke-linejoin:round"></path></g><g id="freepik--musical-notes--inject-2"><path d="M332.67,142.63a58.37,58.37,0,0,1-5.73-3.33c-2.79-1.87-4.31-1-3.95.27s-2,10-5.55,14.62-3.24-.65-5.93-1.57-4.14,1.76-2.08,4.83,6.73,2.14,7.34.26a111,111,0,0,1,6.28-12.16c1.29-2,2.26-1.9,4.61.44a8.78,8.78,0,0,0,7.93,2.59s-4.82,9.22-6.28,12.16-2.69,6.7-4.86,6.62-4.6-4.38-6.33-1.72,3.42,7.06,6.19,5.8,4.46-7.05,6.51-11.06,8-14.54,7.64-16S335.33,144.36,332.67,142.63Z" style="fill:#263238"></path><path d="M313.78,121.62a41.74,41.74,0,0,1-4.06-2.35c-2-1.32-3.05-.69-2.79.19s-1.41,7.06-3.93,10.34-2.29-.47-4.19-1.11-2.93,1.24-1.47,3.41,4.76,1.51,5.19.18a78.23,78.23,0,0,1,4.44-8.59c.92-1.41,1.6-1.35,3.26.31a6.23,6.23,0,0,0,5.61,1.83s-3.41,6.52-4.44,8.6-1.9,4.74-3.44,4.68-3.26-3.09-4.48-1.21,2.42,5,4.38,4.09,3.16-5,4.6-7.81,5.66-10.29,5.41-11.35S315.66,122.84,313.78,121.62Z" style="fill:#263238"></path><path d="M194.5,157.08a42.27,42.27,0,0,1-4.05-2.35c-2-1.32-3-.69-2.79.19s-1.41,7.06-3.93,10.34-2.29-.47-4.19-1.11-2.93,1.24-1.47,3.41,4.76,1.51,5.19.18a78.23,78.23,0,0,1,4.44-8.59c.91-1.41,1.6-1.35,3.26.31a6.23,6.23,0,0,0,5.61,1.83s-3.41,6.52-4.44,8.6-1.9,4.74-3.44,4.68-3.26-3.1-4.48-1.22,2.42,5,4.38,4.1,3.16-5,4.6-7.82,5.66-10.28,5.41-11.34S196.38,158.3,194.5,157.08Z" style="fill:#263238"></path></g></svg>